<?xml version="1.0" standalone="no"?>
<!DOCTYPE svg PUBLIC "-//W3C//DTD SVG 20010904//EN"
 "http://www.w3.org/TR/2001/REC-SVG-20010904/DTD/svg10.dtd">
<svg version="1.0" xmlns="http://www.w3.org/2000/svg"
 width="83.000000pt" height="83.000000pt" viewBox="0 0 83.000000 83.000000"
 preserveAspectRatio="xMidYMid meet">
<metadata>
Created by potrace 1.11, written by Peter Selinger 2001-2013
</metadata>
<g transform="translate(0.000000,83.000000) scale(0.100000,-0.100000)"
fill="#000000" stroke="none">
<path d="M410 737 c-7 -17 -23 -39 -33 -48 -14 -11 -18 -22 -13 -37 8 -24 26
-30 26 -9 0 7 5 5 10 -5 9 -14 -2 -68 -13 -68 -45 0 -187 -39 -240 -67 -52
-26 -101 -94 -95 -131 2 -11 -3 -17 -15 -16 -16 2 -15 -2 5 -30 13 -17 30 -44
38 -61 8 -16 18 -32 21 -35 4 -3 9 -14 11 -25 1 -11 6 -22 9 -25 11 -8 13 -53
4 -73 -4 -10 -5 -20 -2 -23 3 -4 50 2 104 12 99 18 254 23 328 12 22 -4 60
-10 85 -14 25 -4 53 -11 62 -15 13 -7 20 -4 28 11 6 11 7 20 1 20 -15 0 -19
59 -4 64 7 3 13 12 13 20 0 17 45 102 68 128 11 13 12 21 4 31 -10 11 -18 38
-21 69 -3 25 -111 106 -133 100 -5 -1 -8 3 -8 9 0 6 -6 9 -12 6 -7 -2 -24 0
-37 5 -20 7 -43 12 -109 22 -43 7 -66 71 -26 71 26 0 30 39 6 62 -11 10 -26
30 -33 45 l-14 28 -15 -33z m-21 -224 c-12 -33 -20 -113 -13 -125 3 -5 12 -1
21 9 13 17 14 17 5 -2 -5 -11 -8 -27 -7 -36 2 -10 -4 -15 -19 -14 -30 3 -49
-27 -36 -59 11 -29 20 -32 39 -13 10 10 12 6 9 -18 -3 -30 -4 -31 -62 -34 -11
-1 -16 -6 -13 -15 4 -10 1 -13 -9 -9 -8 3 -13 8 -10 10 3 3 -4 13 -15 22 -19
16 -18 58 2 46 4 -3 13 3 18 13 14 26 -9 57 -37 50 -15 -4 -22 0 -26 16 -3 11
-1 23 4 24 6 2 10 11 10 21 0 26 26 57 83 101 62 47 70 48 56 13z m177 -51
c17 -18 35 -47 38 -65 5 -25 9 -29 16 -17 14 22 12 6 -2 -22 -7 -13 -20 -22
-29 -20 -9 1 -21 -4 -28 -12 -15 -18 -10 -52 7 -48 23 4 25 -29 3 -52 -12 -12
-18 -26 -14 -31 5 -4 2 -5 -5 -1 -7 4 -10 11 -8 15 5 8 -3 10 -49 13 -25 2
-42 29 -30 48 5 8 11 8 20 0 16 -13 29 3 31 38 1 22 -25 45 -45 40 -5 -2 -9 0
-10 5 -3 20 0 28 9 22 13 -8 5 117 -10 145 l-12 22 43 -23 c23 -13 57 -39 75
-57z m-359 24 c-29 -25 -42 -50 -51 -95 -4 -24 -3 -32 7 -28 8 3 12 -6 13 -24
1 -17 -4 -29 -12 -29 -16 0 -11 -50 7 -60 8 -5 17 -3 23 6 9 12 13 12 23 -5
26 -41 -43 -79 -80 -42 -17 17 -17 41 0 41 14 0 14 2 0 23 -8 12 -20 21 -26
19 -7 -1 -15 6 -18 15 -4 10 -14 24 -22 31 -9 8 -10 11 -4 7 7 -3 14 -1 14 4
1 6 3 16 4 21 1 6 3 18 4 28 2 24 40 66 81 89 46 26 67 25 37 -1z m452 9 c49
-9 99 -62 107 -113 3 -15 6 -32 8 -37 4 -11 -33 -62 -40 -57 -12 7 -22 -1 -26
-22 -3 -17 -1 -23 8 -19 19 7 13 -35 -6 -43 -8 -4 -27 -8 -42 -8 -21 -1 -29 5
-33 23 -3 13 -3 26 0 30 10 9 29 8 36 -3 11 -14 31 33 24 54 -4 11 -10 20 -15
20 -4 0 -6 9 -3 20 3 11 9 18 13 15 4 -2 6 8 4 23 -1 15 -2 35 -3 44 -1 9 -18
34 -38 54 -21 21 -32 34 -26 30 7 -4 22 -9 32 -11z m-205 -91 c6 -15 4 -15
-11 -3 -10 7 -20 15 -22 16 -2 2 3 3 11 3 9 0 19 -7 22 -16z m-241 -11 c3 -5
-6 -9 -19 -9 -13 -1 -21 2 -18 7 6 11 31 12 37 2z m461 -9 c3 -8 2 -12 -4 -9
-6 3 -10 10 -10 16 0 14 7 11 14 -7z m30 -252 c3 -5 -1 -9 -9 -9 -8 0 -12 4
-9 9 3 4 7 8 9 8 2 0 6 -4 9 -8z"/>
<path d="M340 81 c0 -6 -7 -8 -16 -4 -12 4 -15 1 -12 -13 2 -15 13 -19 44 -21
37 -1 41 1 36 19 -3 14 -1 19 6 14 7 -4 12 -2 12 4 0 6 -8 10 -17 8 -11 -2
-17 -11 -15 -23 2 -18 1 -18 -18 4 -11 13 -20 18 -20 12z m10 -21 c0 -5 -5
-10 -11 -10 -5 0 -7 5 -4 10 3 6 8 10 11 10 2 0 4 -4 4 -10z"/>
<path d="M427 66 c4 -20 11 -24 39 -24 29 0 34 4 34 22 0 28 -27 30 -36 4 -3
-10 -9 -16 -14 -13 -5 3 -7 12 -3 20 3 9 -1 15 -10 15 -10 0 -13 -7 -10 -24z
m63 -6 c0 -5 -5 -10 -11 -10 -5 0 -7 5 -4 10 3 6 8 10 11 10 2 0 4 -4 4 -10z"/>
<path d="M210 60 c-6 -11 -8 -24 -5 -29 7 -13 35 -7 45 8 5 9 9 10 14 2 11
-17 26 -3 19 16 -4 11 -3 14 5 9 7 -4 12 -2 12 3 0 15 -13 14 -28 -1 -10 -10
-17 -10 -32 0 -16 10 -21 9 -30 -8z m20 -20 c-18 -11 -22 -7 -14 14 5 13 10
14 18 6 8 -8 7 -13 -4 -20z"/>
<path d="M553 72 c-10 -6 -10 -12 2 -28 14 -18 14 -18 10 4 -3 18 -1 22 11 18
9 -3 12 -1 9 4 -7 12 -16 12 -32 2z"/>
<path d="M597 60 c-9 -11 -12 -20 -7 -20 6 0 13 0 18 0 4 0 8 9 8 20 2 24 2
24 -19 0z"/>
<path d="M633 56 c3 -7 0 -20 -6 -27 -10 -11 -9 -11 5 0 18 13 42 6 33 -10 -4
-5 -1 -9 5 -9 6 0 10 10 8 22 -2 13 -9 22 -16 20 -6 -1 -12 2 -12 8 0 6 -5 10
-11 10 -6 0 -9 -6 -6 -14z"/>
<path d="M141 50 c-25 -6 -42 -30 -21 -30 6 0 8 -5 5 -10 -3 -6 -1 -10 5 -10
7 0 9 8 5 20 -4 11 -2 20 4 20 6 0 11 -10 11 -21 0 -18 3 -19 15 -9 8 6 18 9
23 6 5 -3 7 5 5 18 -5 24 -12 26 -52 16z m34 -9 c3 -5 1 -12 -5 -16 -5 -3 -10
1 -10 9 0 18 6 21 15 7z"/>
<path d="M690 30 c0 -23 4 -30 20 -30 11 0 20 7 20 15 0 8 0 18 1 22 0 4 -9
10 -20 15 -18 6 -21 4 -21 -22z m34 -5 c-8 -19 -21 -19 -21 0 0 8 6 15 13 15
8 0 11 -6 8 -15z"/>
<path d="M518 43 c7 -3 16 -2 19 1 4 3 -2 6 -13 5 -11 0 -14 -3 -6 -6z"/>
</g>
</svg>
